<svg xmlns="http://www.w3.org/2000/svg" xmlns:xlink="http://www.w3.org/1999/xlink" contentStyleType="text/css" data-diagram-type="GANTT" height="416px" preserveAspectRatio="none" style="width:297px;height:416px;background:#F5F5F5;" version="1.1" viewBox="0 0 297 416" width="297px" zoomAndPan="magnify"><defs/><g><rect fill="#F5F5F5" height="416" style="stroke:none;stroke-width:1;" width="297" x="0" y="0"/><rect fill="#F5F5F5" height="16" style="stroke:none;stroke-width:1;" width="176" x="0" y="0"/><rect fill="#F5F5F5" height="16" style="stroke:none;stroke-width:1;" width="176" x="0" y="399.2109"/><line style="stroke:#C0C0C0;stroke-width:1;" x1="0" x2="0" y1="6" y2="407.2109"/><line style="stroke:#C0C0C0;stroke-width:1;" x1="16" x2="16" y1="6" y2="407.2109"/><line style="stroke:#C0C0C0;stroke-width:1;" x1="32" x2="32" y1="6" y2="407.2109"/><line style="stroke:#C0C0C0;stroke-width:1;" x1="48" x2="48" y1="6" y2="407.2109"/><line style="stroke:#C0C0C0;stroke-width:1;" x1="64" x2="64" y1="6" y2="407.2109"/><line style="stroke:#C0C0C0;stroke-width:1;" x1="80" x2="80" y1="6" y2="407.2109"/><line style="stroke:#C0C0C0;stroke-width:1;" x1="96" x2="96" y1="6" y2="407.2109"/><line style="stroke:#C0C0C0;stroke-width:1;" x1="112" x2="112" y1="6" y2="407.2109"/><line style="stroke:#C0C0C0;stroke-width:1;" x1="128" x2="128" y1="6" y2="407.2109"/><line style="stroke:#C0C0C0;stroke-width:1;" x1="144" x2="144" y1="6" y2="407.2109"/><line style="stroke:#C0C0C0;stroke-width:1;" x1="160" x2="160" y1="6" y2="407.2109"/><line style="stroke:#C0C0C0;stroke-width:1;" x1="176" x2="176" y1="6" y2="407.2109"/><text fill="#000000" font-family="sans-serif" font-size="10" lengthAdjust="spacing" textLength="5.5615" x="5.2192" y="10.3809">1</text><text fill="#000000" font-family="sans-serif" font-size="10" lengthAdjust="spacing" textLength="5.5615" x="21.2192" y="10.3809">2</text><text fill="#000000" font-family="sans-serif" font-size="10" lengthAdjust="spacing" textLength="5.5615" x="37.2192" y="10.3809">3</text><text fill="#000000" font-family="sans-serif" font-size="10" lengthAdjust="spacing" textLength="5.5615" x="53.2192" y="10.3809">4</text><text fill="#000000" font-family="sans-serif" font-size="10" lengthAdjust="spacing" textLength="5.5615" x="69.2192" y="10.3809">5</text><text fill="#000000" font-family="sans-serif" font-size="10" lengthAdjust="spacing" textLength="5.5615" x="85.2192" y="10.3809">6</text><text fill="#000000" font-family="sans-serif" font-size="10" lengthAdjust="spacing" textLength="5.5615" x="101.2192" y="10.3809">7</text><text fill="#000000" font-family="sans-serif" font-size="10" lengthAdjust="spacing" textLength="5.5615" x="117.2192" y="10.3809">8</text><text fill="#000000" font-family="sans-serif" font-size="10" lengthAdjust="spacing" textLength="5.5615" x="133.2192" y="10.3809">9</text><text fill="#000000" font-family="sans-serif" font-size="10" lengthAdjust="spacing" textLength="11.123" x="146.4385" y="10.3809">10</text><text fill="#000000" font-family="sans-serif" font-size="10" lengthAdjust="spacing" textLength="11.123" x="162.4385" y="10.3809">11</text><path d="M8,65.6719 L8,76.5898 L13,76.5898" fill="none" style="stroke:#181818;stroke-width:1.5;"/><polygon fill="#181818" points="12,72.5898,16,76.5898,12,80.5898,12,72.5898" style="stroke:#181818;stroke-width:1;"/><path d="M24,83.5078 L24,146.0977 L29,146.0977" fill="none" style="stroke:#181818;stroke-width:1.5;"/><polygon fill="#181818" points="28,142.0977,32,146.0977,28,150.0977,28,142.0977" style="stroke:#181818;stroke-width:1;"/><path d="M24,83.5078 L24,163.9336 L29,163.9336" fill="none" style="stroke:#181818;stroke-width:1.5;"/><polygon fill="#181818" points="28,159.9336,32,163.9336,28,167.9336,28,159.9336" style="stroke:#181818;stroke-width:1;"/><path d="M40,153.0156 L40,215.6055 L45,215.6055" fill="none" style="stroke:#181818;stroke-width:1.5;"/><polygon fill="#181818" points="44,211.6055,48,215.6055,44,219.6055,44,211.6055" style="stroke:#181818;stroke-width:1;"/><path d="M40,153.0156 L40,233.4414 L45,233.4414" fill="none" style="stroke:#181818;stroke-width:1.5;"/><polygon fill="#181818" points="44,229.4414,48,233.4414,44,237.4414,44,229.4414" style="stroke:#181818;stroke-width:1;"/><path d="M56,240.3594 L56,251.2773 L61,251.2773" fill="none" style="stroke:#181818;stroke-width:1.5;"/><polygon fill="#181818" points="60,247.2773,64,251.2773,60,255.2773,60,247.2773" style="stroke:#181818;stroke-width:1;"/><path d="M72,258.1953 L72,269.1133 L77,269.1133" fill="none" style="stroke:#181818;stroke-width:1.5;"/><polygon fill="#181818" points="76,265.1133,80,269.1133,76,273.1133,76,265.1133" style="stroke:#181818;stroke-width:1;"/><path d="M72,258.1953 L72,286.9492 L77,286.9492" fill="none" style="stroke:#181818;stroke-width:1.5;"/><polygon fill="#181818" points="76,282.9492,80,286.9492,76,290.9492,76,282.9492" style="stroke:#181818;stroke-width:1;"/><path d="M120,293.8672 L120,338.6211 L125,338.6211" fill="none" style="stroke:#181818;stroke-width:1.5;"/><polygon fill="#181818" points="124,334.6211,128,338.6211,124,342.6211,124,334.6211" style="stroke:#181818;stroke-width:1;"/><path d="M152,345.5391 L152,356.457 L157,356.457" fill="none" style="stroke:#181818;stroke-width:1.5;"/><polygon fill="#181818" points="156,352.457,160,356.457,156,360.457,156,352.457" style="stroke:#181818;stroke-width:1;"/><rect fill="#F5F5F5" height="23.8359" style="stroke:none;stroke-width:1;" width="176" x="0" y="21"/><line style="stroke:#181818;stroke-width:1;" x1="0" x2="5" y1="32.918" y2="32.918"/><line style="stroke:#181818;stroke-width:1;" x1="54.1338" x2="175" y1="32.918" y2="32.918"/><rect fill="#F5F5F5" height="13.8359" style="stroke:none;stroke-width:1;" width="12" x="2" y="51.8359"/><rect fill="none" height="13.8359" style="stroke:#181818;stroke-width:1;" width="12" x="2" y="51.8359"/><rect fill="#F5F5F5" height="13.8359" style="stroke:none;stroke-width:1;" width="12" x="18" y="69.6719"/><rect fill="none" height="13.8359" style="stroke:#181818;stroke-width:1;" width="12" x="18" y="69.6719"/><rect fill="#F5F5F5" height="13.8359" style="stroke:none;stroke-width:1;" width="12" x="2" y="87.5078"/><rect fill="none" height="13.8359" style="stroke:#181818;stroke-width:1;" width="12" x="2" y="87.5078"/><rect fill="#F5F5F5" height="23.8359" style="stroke:none;stroke-width:1;" width="176" x="0" y="108.3438"/><line style="stroke:#181818;stroke-width:1;" x1="0" x2="5" y1="120.2617" y2="120.2617"/><line style="stroke:#181818;stroke-width:1;" x1="52.2915" x2="175" y1="120.2617" y2="120.2617"/><rect fill="#F5F5F5" height="13.8359" style="stroke:none;stroke-width:1;" width="12" x="34" y="139.1797"/><rect fill="none" height="13.8359" style="stroke:#181818;stroke-width:1;" width="12" x="34" y="139.1797"/><rect fill="#F5F5F5" height="13.8359" style="stroke:none;stroke-width:1;" width="12" x="34" y="157.0156"/><rect fill="none" height="13.8359" style="stroke:#181818;stroke-width:1;" width="12" x="34" y="157.0156"/><rect fill="#F5F5F5" height="23.8359" style="stroke:none;stroke-width:1;" width="176" x="0" y="177.8516"/><line style="stroke:#181818;stroke-width:1;" x1="0" x2="5" y1="189.7695" y2="189.7695"/><line style="stroke:#181818;stroke-width:1;" x1="76.1445" x2="175" y1="189.7695" y2="189.7695"/><rect fill="#F5F5F5" height="13.8359" style="stroke:none;stroke-width:1;" width="12" x="50" y="208.6875"/><rect fill="none" height="13.8359" style="stroke:#181818;stroke-width:1;" width="12" x="50" y="208.6875"/><rect fill="#F5F5F5" height="13.8359" style="stroke:none;stroke-width:1;" width="12" x="50" y="226.5234"/><rect fill="none" height="13.8359" style="stroke:#181818;stroke-width:1;" width="12" x="50" y="226.5234"/><rect fill="#F5F5F5" height="13.8359" style="stroke:none;stroke-width:1;" width="12" x="66" y="244.3594"/><rect fill="none" height="13.8359" style="stroke:#181818;stroke-width:1;" width="12" x="66" y="244.3594"/><rect fill="#F5F5F5" height="13.8359" style="stroke:none;stroke-width:1;" width="28" x="82" y="262.1953"/><rect fill="none" height="13.8359" style="stroke:#181818;stroke-width:1;" width="28" x="82" y="262.1953"/><rect fill="#F5F5F5" height="13.8359" style="stroke:none;stroke-width:1;" width="44" x="82" y="280.0313"/><rect fill="none" height="13.8359" style="stroke:#181818;stroke-width:1;" width="44" x="82" y="280.0313"/><rect fill="#F5F5F5" height="23.8359" style="stroke:none;stroke-width:1;" width="176" x="0" y="300.8672"/><line style="stroke:#181818;stroke-width:1;" x1="0" x2="5" y1="312.7852" y2="312.7852"/><line style="stroke:#181818;stroke-width:1;" x1="51.0723" x2="175" y1="312.7852" y2="312.7852"/><rect fill="#F5F5F5" height="13.8359" style="stroke:none;stroke-width:1;" width="28" x="130" y="331.7031"/><rect fill="none" height="13.8359" style="stroke:#181818;stroke-width:1;" width="28" x="130" y="331.7031"/><rect fill="#F5F5F5" height="13.8359" style="stroke:none;stroke-width:1;" width="12" x="162" y="349.5391"/><rect fill="none" height="13.8359" style="stroke:#181818;stroke-width:1;" width="12" x="162" y="349.5391"/><rect fill="#F5F5F5" height="23.8359" style="stroke:none;stroke-width:1;" width="176" x="0" y="370.375"/><line style="stroke:#181818;stroke-width:1;" x1="0" x2="5" y1="382.293" y2="382.293"/><line style="stroke:#181818;stroke-width:1;" x1="88.9868" x2="175" y1="382.293" y2="382.293"/><text fill="#000000" font-family="sans-serif" font-size="11" lengthAdjust="spacing" textLength="39.1338" x="10" y="37.4189">Analyse</text><text fill="#000000" font-family="sans-serif" font-size="11" lengthAdjust="spacing" textLength="117.4121" x="18" y="63.2549">Anforderungen erstellen</text><text fill="#000000" font-family="sans-serif" font-size="11" lengthAdjust="spacing" textLength="154.0483" x="34" y="81.0908">Use-Case-Diagramme erstellen</text><text fill="#000000" font-family="sans-serif" font-size="11" lengthAdjust="spacing" textLength="136.3022" x="18" y="98.9268">GANTT-Diagramm erstellen</text><text fill="#000000" font-family="sans-serif" font-size="11" lengthAdjust="spacing" textLength="37.2915" x="10" y="124.7627">Entwurf</text><text fill="#000000" font-family="sans-serif" font-size="11" lengthAdjust="spacing" textLength="138.7891" x="50" y="150.5986">Klassendiagramme erstellen</text><text fill="#000000" font-family="sans-serif" font-size="11" lengthAdjust="spacing" textLength="149.2036" x="50" y="168.4346">Relationales Datenbankmodell</text><text fill="#000000" font-family="sans-serif" font-size="11" lengthAdjust="spacing" textLength="61.1445" x="10" y="194.2705">Realisierung</text><text fill="#000000" font-family="sans-serif" font-size="11" lengthAdjust="spacing" textLength="130.249" x="66" y="220.1064">Github Repository anlegen</text><text fill="#000000" font-family="sans-serif" font-size="11" lengthAdjust="spacing" textLength="138.8213" x="66" y="237.9424">SQLite3-Datenbank anlegen</text><text fill="#000000" font-family="sans-serif" font-size="11" lengthAdjust="spacing" textLength="84.4014" x="82" y="255.7783">Tabellen anlegen</text><text fill="#000000" font-family="sans-serif" font-size="11" lengthAdjust="spacing" textLength="125.9414" x="114" y="273.6143">SQL-Zugriffe implentieren</text><text fill="#000000" font-family="sans-serif" font-size="11" lengthAdjust="spacing" textLength="102.1099" x="130" y="291.4502">Klassen implentieren</text><text fill="#000000" font-family="sans-serif" font-size="11" lengthAdjust="spacing" textLength="36.0723" x="10" y="317.2861">Testing</text><text fill="#000000" font-family="sans-serif" font-size="11" lengthAdjust="spacing" textLength="103.3237" x="162" y="343.1221">Testklassen erstellen</text><text fill="#000000" font-family="sans-serif" font-size="11" lengthAdjust="spacing" textLength="117.9976" x="178" y="360.958">Unit-Tests durchfuehren</text><text fill="#000000" font-family="sans-serif" font-size="11" lengthAdjust="spacing" textLength="73.9868" x="10" y="386.7939">Dokumentation</text><text fill="#000000" font-family="sans-serif" font-size="10" lengthAdjust="spacing" textLength="5.5615" x="5.2192" y="412.5918">1</text><text fill="#000000" font-family="sans-serif" font-size="10" lengthAdjust="spacing" textLength="5.5615" x="21.2192" y="412.5918">2</text><text fill="#000000" font-family="sans-serif" font-size="10" lengthAdjust="spacing" textLength="5.5615" x="37.2192" y="412.5918">3</text><text fill="#000000" font-family="sans-serif" font-size="10" lengthAdjust="spacing" textLength="5.5615" x="53.2192" y="412.5918">4</text><text fill="#000000" font-family="sans-serif" font-size="10" lengthAdjust="spacing" textLength="5.5615" x="69.2192" y="412.5918">5</text><text fill="#000000" font-family="sans-serif" font-size="10" lengthAdjust="spacing" textLength="5.5615" x="85.2192" y="412.5918">6</text><text fill="#000000" font-family="sans-serif" font-size="10" lengthAdjust="spacing" textLength="5.5615" x="101.2192" y="412.5918">7</text><text fill="#000000" font-family="sans-serif" font-size="10" lengthAdjust="spacing" textLength="5.5615" x="117.2192" y="412.5918">8</text><text fill="#000000" font-family="sans-serif" font-size="10" lengthAdjust="spacing" textLength="5.5615" x="133.2192" y="412.5918">9</text><text fill="#000000" font-family="sans-serif" font-size="10" lengthAdjust="spacing" textLength="11.123" x="146.4385" y="412.5918">10</text><text fill="#000000" font-family="sans-serif" font-size="10" lengthAdjust="spacing" textLength="11.123" x="162.4385" y="412.5918">11</text><!--SRC=[dLHRRzem57xthpZI7jO-f2kmTbKsJQM48L7OEXhwCBG7Gqw2HM8pNvZGjF- -avJGL91idI8vaVtvV9VOvzfOhct2fRKmo4Sl43pHFCiO-s3iDiMFZ6cbBFowuOlLG2idevvAbVRXLNoHF-z_4_JD3kjvNSdJhK7FOspMbR7I4Med4vI0sbXCKvJVGUCF9pGQQ474jsmsfGqzJaF9Zl-FBXmPu1Pg-LyRG1cnsQ3xEGptLHeeoLTVsfzEn-HhTfjoOwZ0lsXjmbQKDbegvKumvLOe2fZg1zoYd7EvobH4i4FcPlGBkIc02V9K656acQSm47RfvZ31jJB2Ahq5BbDCZeNG0AteQ8YgJE3-wqXOx7XxE_MS3T2NSOPyNapKKnqYAWprEYgcl6ykqIAE4KIsfagMOdx6rCwPJ2EsmdaWw94AziUnZgQpepaE-pj3Vav2D5Oy7f7ySxKhTUoEbAvgS8V_wRcWCi2f5BQWDH0vlLZ63fVwQEEe0rQT7TNoP2zGAvUHXE9kvLtkcXQA1ihONKhlwNW46zf9oz0wQv-tByxQ9w536789v- -WTULtBlpE9VJw8UJBf-naS3S2eqWIGYICrMBkylAdRCWt72QE76VemvSroc5mMqv0Nsw4LZANmuOFuoV0vLllHbYuHqrAu67C0eovIotjMAY8_euFq_2JTyL6N2QE9rGxGjQZvcxrreUW_mS0]--></g></svg>